<?xml version="1.0" encoding="UTF-8"?>
<svg xmlns="http://www.w3.org/2000/svg" width="256" height="106" version="1.2">
  <path fill="#fff" fill-rule="evenodd" d="M95.32 33.74c-.36-.77.12-1.53 1-1.53h6c.52 0 .88.35 1 .65l11.28 25.35h.41l11.29-25.35c.12-.3.47-.65 1-.65h5.99c.89 0 1.36.76 1 1.53l-18.22 39.69c-.18.35-.47.65-1 .65h-.59c-.53 0-.82-.3-1-.65L95.32 33.74zM7.01 32.39c.06-.47.41-.89 1.05-.89h.95c.47 0 .82.24 1 .59l12.93 27.84h.17l12.94-27.84c.17-.35.47-.59.99-.59h.95c.64 0 1 .41 1.05.89l6.94 39.63c.17.82-.3 1.35-1.06 1.35h-5.35c-.53 0-1-.47-1.11-.88l-3.47-22.35h-.18L24.52 73.31c-.12.36-.47.65-1 .65h-1.05c-.53 0-.83-.29-1-.65l-10.4-23.17h-.18L7.48 72.49c-.06.41-.53.88-1.06.88H1.13c-.76 0-1.23-.53-1.11-1.35l6.99-39.63zm141.56 21.23l-13.4-19.7c-.47-.77 0-1.71.94-1.71h6c.47 0 .76.3.94.53l9.4 13.56 9.41-13.56c.18-.24.47-.53.94-.53h6.06c.94 0 1.41.95.94 1.71l-13.58 19.64v18.81c0 .59-.53 1.12-1.11 1.12h-5.41c-.65 0-1.12-.53-1.12-1.12V53.62h-.01zm73.77-22h1.47l24.45 26.07h.06V33.33c0-.58.47-1.11 1.12-1.11h5.4c.59 0 1.12.53 1.12 1.11v39.69c0 .59-.53 1.06-1.12 1.06h-1.41l-24.57-27.07h-.06v25.36c0 .59-.46 1.12-1.11 1.12h-5.35c-.59 0-1.12-.53-1.12-1.12V32.68c0-.59.53-1.06 1.12-1.06zm-63.28-3.15h-4.28c2.43-4.19 4.7-7.64 7.14-10.82 4.39-5.7 8.93-9.91 13.87-12.85 2.94-1.73 6.04-3.01 9.24-3.79 3.16-.79 6.48-1.12 9.88-.98 3.38.13 6.68.75 9.81 1.83 2.97 1.01 5.93 2.54 8.8 4.55 4.67 3.28 8.8 7.55 13.03 13.46 1.98 2.8 3.78 5.68 5.48 8.59h-4.28c-1.32-2.18-2.71-4.34-4.2-6.45-3.97-5.54-7.83-9.54-12.14-12.57-2.58-1.8-5.24-3.18-7.88-4.08-2.8-.97-5.75-1.52-8.77-1.64-3.04-.12-6.03.17-8.85.87-2.85.71-5.62 1.84-8.24 3.39-4.53 2.69-8.73 6.59-12.83 11.92-1.97 2.57-3.84 5.34-5.78 8.56v.01zm62.27-4.85c1.11 1.57 2.17 3.2 3.19 4.84h-4.36c-.6-.91-1.2-1.81-1.82-2.69-3.48-4.87-6.95-8.49-10.6-11.04-3.97-2.83-8.54-4.41-13.23-4.57-4.83-.22-9.51.95-13.58 3.36-3.82 2.27-7.42 5.65-11.01 10.32-1.09 1.43-2.18 2.96-3.27 4.62h-4.37c1.59-2.54 3.14-4.81 4.73-6.88 3.87-5.05 7.81-8.72 12.05-11.24 4.69-2.77 10.08-4.11 15.6-3.87 5.39.19 10.66 2 15.2 5.23 3.99 2.8 7.75 6.7 11.47 11.92zM77.84 86.16c-2.12-2.55-4.18-5.44-6.3-8.85h4.37c1.6 2.43 3.16 4.57 4.77 6.49 3.58 4.34 7.43 7.52 11.42 9.47 4.16 2.03 8.94 2.78 13.81 2.17 4.45-.52 8.9-2.5 12.87-5.73 3.49-2.82 6.82-6.65 10.21-11.71.15-.23.3-.46.44-.69h4.38c-.58.92-1.16 1.84-1.76 2.74-3.6 5.38-7.18 9.48-10.95 12.53-4.51 3.67-9.62 5.93-14.75 6.53-1.24.16-2.47.23-3.7.23-4.27 0-8.42-.93-12.16-2.75-4.46-2.17-8.72-5.68-12.65-10.43zm59.17-8.85h4.29c-1.24 2.13-2.54 4.25-3.92 6.33-4.02 6.01-7.92 10.44-12.25 13.95-2.65 2.15-5.45 3.9-8.33 5.2-3.07 1.4-6.32 2.31-9.63 2.72-1.49.18-2.99.28-4.47.28-1.83 0-3.64-.15-5.43-.42-3.38-.53-6.6-1.53-9.56-2.97-5.3-2.58-10.27-6.65-14.79-12.1-3-3.61-5.85-7.78-8.86-12.99h4.28c2.51 4.17 4.91 7.61 7.41 10.63 4.18 5.04 8.74 8.78 13.57 11.13 2.64 1.29 5.5 2.17 8.51 2.65 2.92.44 5.91.48 8.89.12 2.95-.37 5.83-1.18 8.56-2.42 2.6-1.18 5.13-2.76 7.54-4.7 4.03-3.28 7.69-7.45 11.5-13.13.93-1.41 1.82-2.84 2.69-4.28zm90.16 18.98h-1.58v-.91c-.27.32-.61.56-1 .74-.4.17-.84.26-1.3.26-.95 0-1.7-.27-2.24-.8-.55-.53-.82-1.32-.82-2.36v-4.08h1.66v3.85c0 .64.15 1.12.43 1.44.29.31.71.47 1.24.47.59 0 1.07-.18 1.42-.55.35-.37.53-.91.53-1.6v-3.61h1.66v7.15zm20.76-7.34v1.59c-.15-.02-.27-.04-.39-.04-.65 0-1.16.19-1.52.57-.36.38-.54.92-.54 1.64v3.46h-1.67v-7.14h1.58v1.04c.49-.74 1.33-1.12 2.54-1.12zm-34 2.28h4.51v1.47h-4.51v3.59h-1.73v-9.37h6.81v1.46h-5.08v2.85zm19.65 4.67c-.2.16-.43.28-.71.36-.28.09-.58.13-.89.13-.78 0-1.38-.21-1.81-.62-.43-.41-.64-1.01-.64-1.79v-3.44h-1.18V89.2h1.18v-1.63h1.66v1.63h1.91v1.34h-1.91v3.4c0 .34.09.61.26.79.17.18.41.28.73.28.37 0 .68-.1.94-.3l.46 1.19zm8.22.39h-1.59v-.91c-.26.32-.6.56-1 .74-.4.17-.83.26-1.29.26-.96 0-1.7-.27-2.25-.8s-.82-1.32-.82-2.36v-4.08h1.67v3.85c0 .64.14 1.12.43 1.44.29.31.7.47 1.23.47.6 0 1.07-.18 1.42-.55.35-.37.53-.91.53-1.6v-3.61h1.67v7.15zm-44.62-6.44c.54.53.81 1.31.81 2.34v4.1h-1.66v-3.88c0-.63-.15-1.1-.44-1.42-.3-.32-.72-.47-1.26-.47-.61 0-1.09.18-1.45.55-.35.38-.53.91-.53 1.6v3.61h-1.67v-9.92h1.67v3.61c.28-.3.62-.52 1.02-.68.4-.15.86-.23 1.35-.23.9.01 1.62.27 2.16.79zm-7.47 6.05c-.2.16-.44.28-.72.36-.28.09-.57.13-.88.13-.79 0-1.39-.21-1.82-.62-.42-.41-.64-1.01-.64-1.79v-3.44h-1.17V89.2h1.17v-1.63h1.67v1.63h1.91v1.34h-1.91v3.4c0 .34.08.61.25.79.17.18.42.28.74.28.37 0 .68-.1.93-.3l.47 1.19zm-10.79-6.05c.55.53.82 1.31.82 2.34v4.1h-1.67v-3.88c0-.63-.15-1.1-.44-1.42-.29-.31-.71-.47-1.25-.47-.62 0-1.1.18-1.45.55-.36.38-.54.91-.54 1.6v3.61h-1.66v-9.92h1.66v3.61c.28-.3.62-.52 1.02-.68.41-.15.86-.23 1.36-.23.89.01 1.61.27 2.15.79zm-12.54 6.06c-.59-.31-1.05-.74-1.38-1.3-.33-.56-.49-1.19-.49-1.9 0-.7.16-1.33.49-1.88.33-.56.79-.99 1.37-1.3.58-.31 1.25-.47 2-.47.7 0 1.31.15 1.84.43s.93.7 1.2 1.23l-1.28.75c-.21-.33-.46-.58-.77-.74-.31-.17-.64-.25-1.01-.25-.62 0-1.14.2-1.55.61-.41.4-.61.94-.61 1.62 0 .68.2 1.22.61 1.63.4.41.92.61 1.55.61.36 0 .7-.08 1.01-.25.3-.17.56-.41.76-.74l1.28.75c-.27.53-.67.95-1.2 1.23-.53.29-1.14.44-1.83.44-.74 0-1.41-.15-1.99-.47zm-17.8-7.51v-1.48h7.92v1.48h-3.09v7.89h-1.73V88.4h-3.1zm14.94 4.85h-5.58c.09.53.35.94.77 1.25.41.31.92.46 1.54.46.78 0 1.42-.26 1.93-.77l.89 1.03c-.32.38-.72.67-1.21.87-.5.2-1.04.29-1.65.29-.79 0-1.48-.15-2.07-.46-.59-.32-1.06-.75-1.38-1.31-.33-.56-.49-1.19-.49-1.89s.16-1.33.47-1.88c.32-.56.76-1 1.32-1.31.56-.31 1.19-.46 1.89-.46.69 0 1.32.15 1.86.46.55.31.97.74 1.28 1.3.31.55.46 1.2.46 1.93 0 .11-.01.28-.03.49zm-4.92-2.37c-.37.31-.6.74-.67 1.26h4.04c-.07-.52-.29-.94-.66-1.25-.36-.33-.81-.49-1.36-.49-.53 0-.99.16-1.35.48zm48.24 2.37h-5.59c.1.53.36.94.77 1.25.42.31.93.46 1.54.46.79 0 1.43-.26 1.93-.77l.9 1.03c-.32.38-.73.67-1.22.87-.48.2-1.03.29-1.65.29-.78 0-1.47-.15-2.06-.46-.6-.32-1.06-.75-1.38-1.31-.33-.56-.49-1.19-.49-1.89s.16-1.33.47-1.88c.31-.56.75-1 1.32-1.31.56-.31 1.19-.46 1.89-.46.69 0 1.31.15 1.86.46.55.31.97.74 1.28 1.3.3.55.46 1.2.46 1.93-.01.11-.01.28-.03.49zm-4.93-2.37c-.37.31-.59.74-.67 1.26h4.04c-.07-.52-.29-.94-.65-1.25-.37-.33-.82-.49-1.36-.49-.54 0-.99.16-1.36.48zm54.1 2.37h-5.59c.1.53.36.94.77 1.25.41.31.93.46 1.54.46.78 0 1.43-.26 1.93-.77l.9 1.03c-.32.38-.73.67-1.22.87-.49.2-1.04.29-1.65.29-.78 0-1.47-.15-2.06-.46-.6-.32-1.06-.75-1.39-1.31-.32-.56-.48-1.19-.48-1.89s.15-1.33.47-1.88c.31-.56.75-1 1.31-1.31.57-.31 1.19-.46 1.9-.46.69 0 1.31.15 1.86.46.54.31.97.74 1.28 1.3.3.55.46 1.2.46 1.93-.01.11-.01.28-.03.49zm-4.93-2.37c-.37.31-.6.74-.67 1.26h4.04c-.07-.52-.29-.94-.66-1.25-.36-.33-.81-.49-1.35-.49s-.99.16-1.36.48zm-58.72-59.26c11.76 0 21.16 9.49 21.16 21.29 0 11.79-9.4 21.17-21.16 21.17-11.75 0-21.1-9.38-21.1-21.17 0-11.8 9.35-21.29 21.1-21.29zm0 34.79c7.41 0 13.52-6.07 13.52-13.5s-6.12-13.62-13.52-13.62c-7.4 0-13.46 6.19-13.46 13.62 0 7.43 6.06 13.5 13.46 13.5zM72.08 31.5c11.75 0 21.16 9.5 21.16 21.29 0 11.8-9.41 21.17-21.16 21.17-11.76 0-21.1-9.37-21.1-21.17 0-11.79 9.34-21.29 21.1-21.29zm.02 34.91c7.41 0 13.52-6.07 13.52-13.5S79.5 39.29 72.1 39.29c-7.41 0-13.46 6.19-13.46 13.62 0 7.43 6.05 13.5 13.46 13.5z"></path>
</svg>
